/vscmnt/brussel_pixiu_data/_data_brussel/112/vsc11236/PredSimResults/SUBJ09opt3D/weighted-LRposFixed/trackIG/worker_05.mot
version=1
nRows=4
nColumns=50
inDegrees=yes
endheader
                time	         pelvis_tilt	         pelvis_list	     pelvis_rotation	           pelvis_tx	           pelvis_ty	           pelvis_tz	       hip_flexion_r	     hip_adduction_r	      hip_rotation_r	        knee_angle_r	       ankle_angle_r	         mtp_angle_r	       hip_flexion_l	     hip_adduction_l	      hip_rotation_l	        knee_angle_l	       ankle_angle_l	         mtp_angle_l	    lumbar_extension	      lumbar_bending	     lumbar_rotation	 ercspn_r/activation	 intobl_r/activation	 extobl_r/activation	    abd_r/activation	    add_r/activation	hamstrings_r/activation	bifemsh_r/activation	glut_max_r/activation	iliopsoas_r/activation	rect_fem_r/activation	  vasti_r/activation	gastroc_r/activation	 soleus_r/activation	tib_ant_r/activation	 ercspn_l/activation	 intobl_l/activation	 extobl_l/activation	    abd_l/activation	    add_l/activation	hamstrings_l/activation	bifemsh_l/activation	glut_max_l/activation	iliopsoas_l/activation	rect_fem_l/activation	  vasti_l/activation	gastroc_l/activation	 soleus_l/activation	tib_ant_l/activation	
          0.00000000	         -3.47960041	         -1.53696541	          7.58575955	          0.00000000	          0.99590322	         -0.00111616	         22.90723328	          0.09079292	         -4.09924169	          3.07646355	          2.61474702	          0.22776820	        -11.41814168	         -2.96890009	         -2.96318138	        -12.12632418	          5.82762163	         35.75877374	        -12.48379419	         -1.37083637	        -11.10685451	          0.03979869	          0.22652843	          0.05554733	          0.01000013	          0.25293112	          0.05407978	          0.01221888	          0.01000020	          0.09229194	          0.02068262	          0.02522430	          0.01000042	          0.01000016	          0.32389301	          0.01000598	          0.01000027	          0.01000014	          0.05744099	          0.01000073	          0.01272599	          0.29294820	          0.01824498	          0.01122002	          0.01001482	          0.01000093	          0.32990713	          0.27398117	          0.01221928	
          0.01331080	         -3.55163436	         -1.72938425	          7.57593002	          0.01965884	          0.99377470	         -0.00004156	         22.56311062	          0.50682849	         -4.32168972	          2.16499813	          1.88000058	          0.23783290	        -11.98181438	         -3.38248257	         -3.51868268	        -12.93670691	          4.86576986	         37.48594581	        -11.85589977	         -0.81314080	        -11.31384716	          0.03257274	          0.19237841	          0.04546187	          0.01000018	          0.23819237	          0.06181439	          0.01000343	          0.02931194	          0.07553482	          0.01692742	          0.06895213	          0.01382022	          0.01493172	          0.33651935	          0.01000111	          0.01000033	          0.01000048	          0.04701164	          0.01000069	          0.03439087	          0.28354640	          0.01493242	          0.01000116	          0.01000084	          0.01000065	          0.30363595	          0.25177838	          0.01000070	
          0.02662161	         -3.60026587	         -1.96857777	          7.52981579	          0.03972401	          0.99185356	          0.00101772	         22.10135367	          0.92712101	         -4.54921977	          1.17955939	          1.13339414	          0.21916466	        -12.41882429	         -3.85502236	         -4.10985936	        -14.03798824	          3.75170562	         39.22010083	        -11.19966548	         -0.18254237	        -11.46051198	          0.02665885	          0.15744972	          0.03720759	          0.06610657	          0.19494524	          0.07175856	          0.01005679	          0.04264994	          0.06182023	          0.01385404	          0.05643375	          0.01131118	          0.01222068	          0.40418965	          0.01000277	          0.01000018	          0.01000067	          0.03847591	          0.01000068	          0.04137228	          0.26808968	          0.01222125	          0.01750328	          0.01000074	          0.01000030	          0.27392086	          0.22735441	          0.01000010	
          0.03993241	         -3.63046582	         -2.24684555	          7.44587543	          0.05987674	          0.99039722	          0.00213658	         21.50949365	          1.39483408	         -4.87599484	          0.43400156	          0.21675843	          0.18842112	        -12.63969418	         -4.38601145	         -4.73156222	        -15.53104802	          2.43046370	         40.90678154	        -10.55096646	          0.50150710	        -11.54375560	          0.02181898	          0.12886218	          0.03045201	          0.11311612	          0.15955195	          0.07211782	          0.01001161	          0.05976788	          0.05059576	          0.01133876	          0.04621034	          0.01000099	          0.01000197	          0.45152082	          0.01425027	          0.01000025	          0.01000054	          0.03148998	          0.01000089	          0.06018917	          0.21954898	          0.01000237	          0.02652045	          0.01000083	          0.01000032	          0.22418713	          0.18845448	          0.01000017	
